<svg xmlns="http://www.w3.org/2000/svg" width="32" height="32" viewBox="0 0 32 32" fill="none">
  <defs>
    <linearGradient id="logoGrad" gradientUnits="userSpaceOnUse" x1="3" y1="0" x2="29" y2="29">
      <stop offset="0%" stop-color="#f5f5f4"/>
      <stop offset="100%" stop-color="#78716c"/>
    </linearGradient>
  </defs>
  <g fill="url(#logoGrad)">
    <g transform="translate(0,0)"><rect x="3" y="3" width="4" height="4" rx="1.2"/><rect x="3" y="8.5" width="4" height="4" rx="1.2"/><rect x="3" y="14" width="4" height="4" rx="1.2"/><rect x="3" y="19.5" width="4" height="4" rx="1.2"/><rect x="3" y="25" width="4" height="4" rx="1.2"/></g>
    <g transform="translate(0,-2)"><rect x="8.5" y="3" width="4" height="4" rx="1.2"/><rect x="8.5" y="8.5" width="4" height="4" rx="1.2"/><rect x="8.5" y="14" width="4" height="4" rx="1.2"/><rect x="8.5" y="19.5" width="4" height="4" rx="1.2"/><rect x="8.5" y="25" width="4" height="4" rx="1.2"/></g>
    <g transform="translate(0,-3)"><rect x="14" y="3" width="4" height="4" rx="1.2"/><rect x="14" y="8.5" width="4" height="4" rx="1.2"/><rect x="14" y="14" width="4" height="4" rx="1.2"/><rect x="14" y="19.5" width="4" height="4" rx="1.2"/><rect x="14" y="25" width="4" height="4" rx="1.2"/></g>
    <g transform="translate(0,-2)"><rect x="19.5" y="3" width="4" height="4" rx="1.2"/><rect x="19.5" y="8.5" width="4" height="4" rx="1.2"/><rect x="19.5" y="14" width="4" height="4" rx="1.2"/><rect x="19.5" y="19.5" width="4" height="4" rx="1.2"/><rect x="19.5" y="25" width="4" height="4" rx="1.2"/></g>
    <g transform="translate(0,0)"><rect x="25" y="3" width="4" height="4" rx="1.2"/><rect x="25" y="8.5" width="4" height="4" rx="1.2"/><rect x="25" y="14" width="4" height="4" rx="1.2"/><rect x="25" y="19.5" width="4" height="4" rx="1.2"/><rect x="25" y="25" width="4" height="4" rx="1.2"/></g>
  </g>
</svg>
